<?xml version="1.0" standalone="no"?>
<!DOCTYPE svg PUBLIC "-//W3C//DTD SVG 20010904//EN"
 "http://www.w3.org/TR/2001/REC-SVG-20010904/DTD/svg10.dtd">
<svg version="1.0" xmlns="http://www.w3.org/2000/svg"
 width="256.000000pt" height="256.000000pt" viewBox="0 0 256.000000 256.000000"
 preserveAspectRatio="xMidYMid meet">
<metadata>
Created by potrace 1.14, written by Peter Selinger 2001-2017
</metadata>
<g transform="translate(0.000000,256.000000) scale(0.100000,-0.100000)"
fill="#000000" stroke="none">
<path d="M12 2548 c-9 -9 -12 -287 -12 -1190 0 -1154 0 -1178 19 -1188 11 -5
29 -10 40 -10 18 0 21 -6 21 -44 0 -43 -1 -43 -31 -41 -24 2 -33 -2 -41 -21
-20 -43 2 -54 113 -54 90 0 99 2 110 21 14 27 -7 51 -48 54 -26 1 -28 4 -28
40 0 36 2 40 34 46 18 4 37 12 41 18 4 7 6 487 6 1067 -1 581 2 1061 6 1067 6
11 811 18 828 7 6 -4 7 -29 1 -62 0 -4 -17 -14 -36 -22 -37 -16 -37 -17 -38
-103 0 -29 -3 -54 -6 -54 -3 -1 -86 -2 -184 -3 l-177 -1 -155 -155 c-85 -85
-155 -162 -155 -170 0 -8 56 -71 124 -139 99 -99 128 -122 147 -119 23 3 24 0
22 -45 -2 -36 2 -52 17 -67 28 -28 28 -105 1 -120 -17 -9 -19 -22 -19 -117 0
-190 1 -182 -24 -181 -59 2 -81 -4 -114 -35 -41 -37 -50 -83 -26 -133 12 -27
12 -34 0 -60 -9 -16 -14 -44 -12 -62 l2 -32 -53 0 c-32 0 -57 -5 -62 -13 -11
-17 -12 -588 -1 -609 8 -17 64 -18 958 -18 748 0 951 3 957 12 11 18 12 589 1
611 -7 13 -21 17 -64 17 -55 0 -56 1 -50 25 4 14 0 41 -9 61 -13 32 -13 41 0
80 13 39 13 48 -1 83 -19 48 -76 81 -129 75 -40 -3 -37 -14 -36 154 0 69 -3
86 -20 103 -25 25 -26 96 -2 114 16 12 21 40 22 137 1 21 5 25 21 21 30 -8
275 235 266 263 -3 10 -73 86 -156 169 l-150 149 -182 1 -182 0 -2 47 c-2 38
2 48 17 53 30 10 61 63 63 108 l2 41 333 0 c197 1 335 -3 339 -8 3 -6 6 -488
6 -1072 1 -584 4 -1065 8 -1069 4 -4 22 -10 40 -14 26 -5 33 -12 34 -31 1 -35
-15 -63 -31 -56 -8 3 -24 -3 -36 -13 -18 -15 -20 -21 -10 -39 11 -20 19 -22
109 -22 101 0 122 7 122 42 0 20 -34 38 -63 32 -16 -3 -18 3 -15 44 3 43 5 47
26 44 55 -8 52 -77 52 1197 0 902 -3 1180 -12 1189 -8 8 -47 12 -110 12 -113
0 -117 -3 -114 -88 1 -29 -2 -58 -5 -64 -7 -11 -656 -14 -667 -3 -3 3 -7 22
-9 42 -4 49 -27 82 -70 100 -79 32 -153 -12 -161 -97 l-5 -50 -58 -1 c-33 -1
-70 -1 -84 -1 -118 0 -115 -1 -115 37 0 74 -45 120 -122 124 -30 1 -43 -5 -72
-34 -34 -34 -40 -48 -39 -102 0 -21 -5 -23 -51 -23 -396 -4 -620 0 -625 9 -4
6 -6 35 -4 66 3 78 -7 85 -121 85 -58 0 -96 -4 -104 -12z m1055 -81 c3 -5 7
-23 9 -38 4 -28 2 -29 -41 -29 -42 0 -45 2 -45 27 0 49 54 77 77 40z m501 -34
c3 -27 0 -31 -25 -35 -51 -7 -63 0 -59 35 2 17 12 37 22 44 25 18 58 -5 62
-44z m-3 -144 c0 -29 -5 -36 -35 -50 -34 -17 -35 -18 -40 -90 l-5 -74 -205 0
-205 0 -3 46 c-3 40 0 47 23 59 33 18 55 59 55 103 0 18 2 36 4 38 2 2 96 4
208 3 l203 0 0 -35z"/>
</g>
</svg>
